<svg viewBox="0 0 32 32" xml:space="preserve" xmlns="http://www.w3.org/2000/svg"><path d="m5.063 19.369.521 4.602a.947.947 0 0 0 .042.197 3.006 3.006 0 0 0 3.782 1.924 3.004 3.004 0 0 0 1.924-3.781l-.83-2.551h.261l7.789 3.895a1.008 1.008 0 0 0 .972-.044.999.999 0 0 0 .476-.851v-4.142c1.721-.447 3-2 3-3.858s-1.279-3.411-3-3.858V6.76a1.001 1.001 0 0 0-1.448-.895L10.764 9.76H7c-2.757 0-5 2.243-5 5a5.006 5.006 0 0 0 3.063 4.609zM9.43 22.93a1 1 0 0 1-1.872.698l-.439-3.868h1.279l1.032 3.17zM21 14.76c0 .737-.405 1.375-1 1.722v-3.443c.595.346 1 .984 1 1.721zm-3 6.382-6-3v-6.764l6-3v12.764zM7 11.76h3v6H7c-1.654 0-3-1.346-3-3s1.346-3 3-3zM27 15.76h2a1 1 0 1 0 0-2h-2a1 1 0 1 0 0 2zM27 10.467a.997.997 0 0 0 .707-.293l1.414-1.414a.999.999 0 1 0-1.414-1.414L26.293 8.76A.999.999 0 0 0 27 10.467zM27.707 22.174a.997.997 0 0 0 1.414 0 .999.999 0 0 0 0-1.414l-1.414-1.414a.999.999 0 1 0-1.414 1.414l1.414 1.414z" fill="#ffffff" class="fill-000000"></path></svg>